<?xml version="1.0" encoding="UTF-8"?>
<svg xmlns="http://www.w3.org/2000/svg" xmlns:xlink="http://www.w3.org/1999/xlink" width="30px" height="30px" viewBox="0 0 30 30" version="1.1">
<g id="surface1">
<path style=" stroke:none;fill-rule:nonzero;fill:rgb(0%,0%,0%);fill-opacity:1;" d="M 1.492188 1.019531 C 0.941406 1.257812 0.765625 2.003906 1.148438 2.460938 C 1.417969 2.777344 1.4375 2.78125 3.222656 2.8125 L 4.886719 2.84375 L 6.515625 9.757812 C 7.410156 13.558594 8.152344 16.722656 8.15625 16.78125 C 8.175781 16.875 8.117188 16.90625 7.816406 16.96875 C 6.5 17.238281 5.539062 18.527344 5.640625 19.890625 C 5.695312 20.613281 5.976562 21.203125 6.511719 21.726562 C 6.816406 22.027344 7.429688 22.347656 7.863281 22.4375 C 8.082031 22.484375 10.660156 22.492188 16.445312 22.488281 C 24.695312 22.46875 24.71875 22.46875 24.878906 22.347656 C 25.1875 22.117188 25.28125 21.929688 25.28125 21.5625 C 25.28125 21.195312 25.1875 21.007812 24.878906 20.777344 C 24.71875 20.65625 24.6875 20.65625 16.40625 20.625 C 8.128906 20.59375 8.09375 20.59375 7.933594 20.472656 C 7.625 20.242188 7.53125 20.054688 7.53125 19.6875 C 7.53125 19.320312 7.625 19.132812 7.933594 18.902344 C 8.09375 18.78125 8.128906 18.78125 16.484375 18.75 L 24.875 18.71875 L 25.179688 18.59375 C 25.910156 18.292969 26.5 17.773438 26.789062 17.15625 C 27 16.71875 29.0625 7.941406 29.0625 7.492188 C 29.0625 6.808594 28.773438 6.097656 28.28125 5.578125 C 27.960938 5.238281 27.667969 5.046875 27.171875 4.84375 L 26.867188 4.714844 L 17.050781 4.6875 L 7.242188 4.65625 L 6.875 3.074219 C 6.5 1.484375 6.441406 1.316406 6.128906 1.089844 C 5.976562 0.972656 5.886719 0.96875 3.820312 0.953125 C 2.121094 0.941406 1.632812 0.953125 1.492188 1.019531 Z M 26.6875 6.699219 C 26.9375 6.832031 27.1875 7.230469 27.1875 7.484375 C 27.1875 7.769531 25.132812 16.324219 25.03125 16.460938 C 24.972656 16.542969 24.851562 16.65625 24.761719 16.722656 C 24.601562 16.84375 24.578125 16.84375 17.355469 16.84375 L 10.109375 16.84375 L 8.984375 12.070312 C 8.367188 9.445312 7.824219 7.132812 7.777344 6.925781 L 7.6875 6.5625 L 26.453125 6.5625 Z M 26.6875 6.699219 "/>
<path style=" stroke:none;fill-rule:nonzero;fill:rgb(0%,0%,0%);fill-opacity:1;" d="M 10.554688 23.53125 C 9.070312 23.929688 8.152344 25.46875 8.527344 26.921875 C 8.917969 28.421875 10.453125 29.355469 11.925781 28.976562 C 13.425781 28.582031 14.355469 27.046875 13.976562 25.585938 C 13.582031 24.070312 12.023438 23.132812 10.554688 23.53125 Z M 11.617188 25.394531 C 12.222656 25.648438 12.367188 26.429688 11.902344 26.898438 C 11.519531 27.28125 10.980469 27.28125 10.597656 26.898438 C 9.875 26.179688 10.675781 24.996094 11.617188 25.394531 Z M 11.617188 25.394531 "/>
<path style=" stroke:none;fill-rule:nonzero;fill:rgb(0%,0%,0%);fill-opacity:1;" d="M 20.867188 23.53125 C 19.382812 23.929688 18.464844 25.46875 18.839844 26.921875 C 19.230469 28.421875 20.765625 29.355469 22.238281 28.976562 C 23.738281 28.582031 24.667969 27.046875 24.289062 25.585938 C 23.894531 24.070312 22.335938 23.132812 20.867188 23.53125 Z M 21.929688 25.394531 C 22.535156 25.648438 22.679688 26.429688 22.214844 26.898438 C 21.832031 27.28125 21.292969 27.28125 20.914062 26.898438 C 20.1875 26.179688 20.988281 24.996094 21.929688 25.394531 Z M 21.929688 25.394531 "/>
</g>
</svg>
