<?xml version="1.0" encoding="UTF-8"?>
<svg xmlns="http://www.w3.org/2000/svg" xmlns:xlink="http://www.w3.org/1999/xlink" width="210px" height="157px" viewBox="0 0 209 157" version="1.1">
<g id="surface1">
<path style=" stroke:none;fill-rule:nonzero;fill:rgb(0%,0%,0%);fill-opacity:1;" d="M 91.15625 53.902344 C 90.652344 54.113281 90.527344 55.042969 90.945312 55.535156 C 91.15625 55.777344 91.269531 55.820312 91.6875 55.820312 C 92.273438 55.808594 92.554688 55.597656 92.648438 55.097656 C 92.828125 54.15625 92.066406 53.535156 91.15625 53.902344 Z M 91.15625 53.902344 "/>
<path style=" stroke:none;fill-rule:nonzero;fill:rgb(0%,0%,0%);fill-opacity:1;" d="M 98.125 53.925781 C 97.675781 54.050781 97.238281 54.449219 96.945312 55.003906 C 96.746094 55.367188 96.714844 55.621094 96.695312 56.9375 L 96.664062 58.457031 L 95.773438 58.488281 L 94.875 58.519531 L 94.9375 59.816406 L 95.796875 59.847656 L 96.664062 59.878906 L 96.683594 64.507812 L 96.714844 69.132812 L 97.476562 69.164062 L 98.230469 69.195312 L 98.230469 59.871094 L 100.527344 59.871094 L 100.527344 58.519531 L 99.410156 58.488281 L 98.28125 58.457031 L 98.25 56.800781 L 98.21875 55.160156 L 100.527344 55.160156 L 100.527344 53.796875 L 99.515625 53.808594 C 98.949219 53.808594 98.324219 53.863281 98.125 53.925781 Z M 98.125 53.925781 "/>
<path style=" stroke:none;fill-rule:nonzero;fill:rgb(0%,0%,0%);fill-opacity:1;" d="M 156.039062 61.460938 L 156.070312 69.132812 L 156.832031 69.164062 L 157.585938 69.195312 L 157.585938 65.363281 L 158.441406 64.496094 L 159.300781 63.636719 L 160.417969 65.34375 C 161.023438 66.273438 161.839844 67.519531 162.214844 68.105469 L 162.90625 69.183594 L 164.785156 69.183594 L 163.886719 67.824219 C 163.386719 67.070312 162.945312 66.496094 162.882812 66.535156 C 162.832031 66.566406 162.8125 66.546875 162.84375 66.496094 C 162.914062 66.378906 161.316406 63.921875 161.222656 64.003906 C 161.191406 64.035156 161.171875 63.992188 161.171875 63.921875 C 161.171875 63.835938 161.023438 63.5625 160.847656 63.292969 C 160.660156 63.03125 160.511719 62.757812 160.511719 62.683594 C 160.511719 62.582031 161.839844 61.113281 163.667969 59.1875 L 164.261719 58.5625 L 162.464844 58.5 L 162.089844 58.894531 C 160.367188 60.738281 159.082031 62.128906 158.515625 62.769531 C 158.148438 63.1875 157.796875 63.53125 157.722656 63.53125 C 157.617188 63.53125 157.585938 62.546875 157.585938 58.664062 L 157.585938 53.796875 L 156.019531 53.796875 Z M 156.039062 61.460938 "/>
<path style=" stroke:none;fill-rule:nonzero;fill:rgb(0%,0%,0%);fill-opacity:1;" d="M 80.675781 61.910156 L 80.675781 69.183594 L 84.570312 69.164062 L 88.460938 69.132812 L 88.492188 68.429688 L 88.523438 67.71875 L 85.40625 67.699219 L 82.292969 67.667969 L 82.261719 61.144531 L 82.242188 54.636719 L 80.675781 54.636719 Z M 80.675781 61.910156 "/>
<path style=" stroke:none;fill-rule:nonzero;fill:rgb(0%,0%,0%);fill-opacity:1;" d="M 178.902344 56.625 C 178.902344 57.261719 178.851562 57.878906 178.777344 58.027344 C 178.644531 58.339844 178.160156 58.507812 177.410156 58.507812 L 176.90625 58.507812 L 176.9375 59.15625 L 176.972656 59.816406 L 177.859375 59.871094 L 178.746094 59.921875 L 178.746094 67.980469 L 178.988281 68.378906 C 179.375 68.984375 179.707031 69.101562 181.183594 69.164062 L 182.457031 69.214844 L 182.457031 67.835938 L 181.390625 67.804688 L 180.316406 67.773438 L 180.285156 63.816406 L 180.261719 59.871094 L 182.664062 59.871094 L 182.664062 58.519531 L 181.496094 58.488281 L 180.316406 58.457031 L 180.285156 56.960938 L 180.253906 55.472656 L 178.902344 55.472656 Z M 178.902344 56.625 "/>
<path style=" stroke:none;fill-rule:nonzero;fill:rgb(0%,0%,0%);fill-opacity:1;" d="M 33.398438 57.347656 C 33.1875 57.566406 33.085938 57.796875 33.054688 58.132812 C 33.023438 58.394531 32.992188 58.613281 32.980469 58.613281 C 32.960938 58.613281 32.699219 58.53125 32.382812 58.433594 C 31.601562 58.195312 30.210938 58.195312 29.46875 58.445312 C 28.652344 58.726562 28.183594 59.054688 27.691406 59.671875 C 27.128906 60.382812 26.917969 61.144531 26.992188 62.183594 C 27.066406 63.300781 27.503906 64.140625 28.339844 64.726562 C 28.664062 64.964844 28.9375 65.1875 28.9375 65.21875 C 28.945312 65.257812 28.726562 65.363281 28.464844 65.46875 C 27.472656 65.847656 26.992188 66.558594 27.136719 67.445312 C 27.179688 67.75 27.328125 67.980469 27.660156 68.304688 C 27.902344 68.546875 28.109375 68.765625 28.109375 68.796875 C 28.109375 68.828125 27.847656 68.976562 27.523438 69.132812 C 26.699219 69.539062 26.386719 70.042969 26.398438 70.972656 C 26.398438 71.5625 26.449219 71.75 26.6875 72.117188 C 27.265625 72.984375 28.351562 73.414062 30.367188 73.539062 C 32.25 73.664062 34.253906 73.265625 35.132812 72.605469 C 36.136719 71.855469 36.46875 70.273438 35.886719 69.101562 C 35.59375 68.515625 34.996094 67.960938 34.789062 68.097656 C 34.714844 68.136719 34.695312 68.128906 34.726562 68.066406 C 34.882812 67.824219 33.523438 67.625 31.402344 67.574219 C 29.101562 67.53125 28.714844 67.445312 28.527344 66.988281 C 28.308594 66.464844 28.527344 66.042969 29.1875 65.710938 C 29.53125 65.542969 29.835938 65.5 30.871094 65.480469 C 32.34375 65.457031 33.023438 65.25 33.773438 64.589844 C 35.175781 63.34375 35.351562 60.949219 34.140625 59.597656 C 33.898438 59.324219 33.765625 59.054688 33.734375 58.792969 L 33.691406 58.402344 L 35.738281 58.402344 L 35.738281 57.042969 L 34.714844 57.042969 C 33.710938 57.042969 33.679688 57.054688 33.398438 57.347656 Z M 31.945312 59.609375 C 32.867188 59.878906 33.335938 60.632812 33.335938 61.835938 C 33.335938 63.542969 32.605469 64.265625 30.871094 64.265625 C 29.78125 64.253906 29.03125 63.835938 28.746094 63.082031 C 28.550781 62.570312 28.601562 60.914062 28.832031 60.496094 C 29.3125 59.597656 30.628906 59.21875 31.945312 59.609375 Z M 33.929688 69.277344 C 34.441406 69.519531 34.695312 69.929688 34.695312 70.566406 C 34.695312 71.863281 33.410156 72.398438 30.566406 72.304688 C 29.550781 72.273438 29.113281 72.210938 28.8125 72.0625 C 27.734375 71.550781 27.492188 70.167969 28.339844 69.375 L 28.652344 69.078125 L 31.078125 69.078125 C 33.21875 69.078125 33.542969 69.113281 33.929688 69.277344 Z M 33.929688 69.277344 "/>
<path style=" stroke:none;fill-rule:nonzero;fill:rgb(0%,0%,0%);fill-opacity:1;" d="M 48.695312 58.339844 C 47.328125 58.632812 46.210938 59.535156 45.625 60.832031 C 45.164062 61.828125 45.007812 62.621094 45.007812 63.847656 C 45.027344 66.902344 46.542969 68.964844 49.042969 69.320312 C 50.066406 69.46875 51.046875 69.320312 51.96875 68.882812 C 52.679688 68.546875 53.492188 67.8125 53.765625 67.300781 C 53.910156 67.019531 53.902344 66.996094 53.429688 66.628906 C 52.941406 66.253906 52.773438 66.179688 52.773438 66.347656 C 52.773438 66.589844 51.789062 67.5 51.289062 67.730469 C 50.453125 68.105469 49.175781 68.085938 48.363281 67.6875 C 47.308594 67.175781 46.753906 66.273438 46.636719 64.863281 L 46.574219 64.160156 L 54.371094 64.160156 L 54.308594 63.082031 C 54.226562 61.449219 53.796875 60.402344 52.824219 59.441406 C 51.800781 58.414062 50.253906 57.996094 48.695312 58.339844 Z M 51.046875 59.804688 C 51.96875 60.234375 52.523438 61.105469 52.636719 62.328125 L 52.699219 63.007812 L 46.585938 63.007812 L 46.648438 62.402344 C 46.773438 61.34375 47.421875 60.320312 48.226562 59.902344 C 48.726562 59.640625 49.011719 59.578125 49.792969 59.566406 C 50.359375 59.554688 50.652344 59.617188 51.046875 59.804688 Z M 51.046875 59.804688 "/>
<path style=" stroke:none;fill-rule:nonzero;fill:rgb(0%,0%,0%);fill-opacity:1;" d="M 60.191406 58.308594 C 58.40625 58.65625 57.046875 60.140625 56.578125 62.253906 C 56.335938 63.3125 56.417969 65.09375 56.742188 66.042969 C 57.570312 68.515625 59.804688 69.8125 62.304688 69.277344 C 63.011719 69.121094 63.976562 68.671875 63.878906 68.523438 C 63.847656 68.460938 63.871094 68.453125 63.933594 68.492188 C 64.089844 68.589844 64.90625 67.835938 65.15625 67.351562 L 65.363281 66.988281 L 65.101562 66.808594 C 64.96875 66.703125 64.726562 66.535156 64.570312 66.433594 L 64.277344 66.242188 L 63.996094 66.671875 C 63.691406 67.132812 63.109375 67.582031 62.492188 67.835938 C 61.90625 68.074219 60.453125 68.023438 59.878906 67.742188 C 58.769531 67.207031 58.1875 66.265625 58.121094 64.964844 L 58.082031 64.160156 L 65.855469 64.160156 L 65.78125 63.238281 C 65.679688 61.960938 65.46875 61.1875 64.988281 60.371094 C 64.015625 58.707031 62.175781 57.921875 60.191406 58.308594 Z M 62.449219 59.804688 C 63.429688 60.265625 64.058594 61.3125 64.058594 62.507812 L 64.058594 63.007812 L 58.101562 63.007812 L 58.101562 62.539062 C 58.101562 61.40625 58.992188 60.089844 59.992188 59.734375 C 60.714844 59.480469 61.8125 59.511719 62.449219 59.804688 Z M 62.449219 59.804688 "/>
<path style=" stroke:none;fill-rule:nonzero;fill:rgb(0%,0%,0%);fill-opacity:1;" d="M 72.574219 58.300781 C 71.925781 58.457031 71.519531 58.707031 71.050781 59.210938 C 70.777344 59.492188 70.527344 59.828125 70.496094 59.953125 C 70.339844 60.425781 70.222656 60.152344 70.222656 59.347656 L 70.222656 58.507812 L 68.65625 58.507812 L 68.65625 69.183594 L 70.222656 69.183594 L 70.222656 65.207031 C 70.222656 61.503906 70.234375 61.199219 70.421875 60.832031 C 70.808594 60.078125 71.675781 59.660156 72.878906 59.660156 C 74.039062 59.671875 74.6875 60.046875 75.105469 60.96875 C 75.269531 61.335938 75.300781 61.828125 75.34375 65.257812 L 75.398438 69.132812 L 76.921875 69.195312 L 76.890625 65.082031 C 76.859375 61.09375 76.847656 60.949219 76.621094 60.382812 C 76.335938 59.671875 75.785156 59.011719 75.207031 58.675781 C 74.488281 58.257812 73.359375 58.101562 72.574219 58.300781 Z M 72.574219 58.300781 "/>
<path style=" stroke:none;fill-rule:nonzero;fill:rgb(0%,0%,0%);fill-opacity:1;" d="M 105.773438 58.308594 C 103.988281 58.65625 102.609375 60.152344 102.136719 62.234375 C 101.929688 63.1875 101.980469 65.050781 102.242188 65.867188 C 103.089844 68.535156 105.355469 69.84375 108.054688 69.226562 C 109.160156 68.976562 110.425781 68.066406 110.800781 67.226562 C 110.917969 66.964844 110.894531 66.933594 110.132812 66.433594 L 109.851562 66.242188 L 109.527344 66.703125 C 108.890625 67.636719 107.71875 68.128906 106.445312 67.992188 C 105.617188 67.90625 105.023438 67.605469 104.46875 66.988281 C 103.9375 66.390625 103.664062 65.648438 103.664062 64.777344 L 103.664062 64.160156 L 111.429688 64.160156 L 111.34375 63.207031 C 111.3125 62.683594 111.207031 61.992188 111.125 61.691406 C 110.488281 59.242188 108.242188 57.816406 105.773438 58.308594 Z M 107.78125 59.679688 C 108.054688 59.765625 108.410156 60.003906 108.753906 60.351562 C 109.359375 60.949219 109.621094 61.617188 109.621094 62.527344 L 109.621094 63.0625 L 106.640625 63.03125 L 103.664062 63 L 103.664062 62.539062 C 103.664062 61.40625 104.550781 60.089844 105.554688 59.734375 C 106.121094 59.535156 107.195312 59.511719 107.78125 59.679688 Z M 107.78125 59.679688 "/>
<path style=" stroke:none;fill-rule:nonzero;fill:rgb(0%,0%,0%);fill-opacity:1;" d="M 122.921875 58.289062 C 122.242188 58.46875 121.628906 58.925781 121.242188 59.566406 C 121.019531 59.902344 120.824219 60.171875 120.78125 60.183594 C 120.730469 60.183594 120.699219 59.804688 120.699219 59.347656 L 120.699219 58.507812 L 119.128906 58.507812 L 119.128906 69.195312 L 119.894531 69.164062 L 120.644531 69.132812 L 120.699219 65.101562 C 120.761719 60.507812 120.738281 60.613281 121.667969 60.035156 C 122.078125 59.785156 122.316406 59.722656 122.984375 59.679688 C 124.34375 59.609375 125.011719 59.964844 125.390625 60.96875 C 125.589844 61.503906 125.609375 61.785156 125.609375 65.363281 L 125.621094 69.195312 L 126.402344 69.164062 L 127.175781 69.132812 L 127.207031 65.15625 C 127.230469 60.726562 127.21875 60.820312 127.96875 60.203125 C 128.472656 59.785156 129.089844 59.628906 130.03125 59.671875 C 131.011719 59.722656 131.449219 59.996094 131.859375 60.8125 L 132.140625 61.386719 L 132.171875 65.21875 L 132.203125 69.058594 L 132.433594 69.121094 C 132.558594 69.152344 132.914062 69.183594 133.214844 69.183594 L 133.761719 69.183594 L 133.761719 65.332031 C 133.761719 62.253906 133.730469 61.367188 133.601562 60.882812 C 133.289062 59.679688 132.746094 58.980469 131.773438 58.519531 C 131.285156 58.289062 131.0625 58.246094 130.257812 58.257812 C 128.785156 58.269531 127.96875 58.738281 127.300781 59.953125 L 127 60.496094 L 126.757812 59.984375 C 126.445312 59.316406 126.015625 58.90625 125.273438 58.5625 C 124.625 58.269531 123.519531 58.132812 122.921875 58.289062 Z M 122.921875 58.289062 "/>
<path style=" stroke:none;fill-rule:nonzero;fill:rgb(0%,0%,0%);fill-opacity:1;" d="M 139.507812 58.332031 C 138.546875 58.5625 137.710938 59.085938 137.1875 59.804688 L 136.882812 60.226562 L 137.332031 60.675781 L 137.773438 61.125 L 138.210938 60.621094 C 138.453125 60.351562 138.871094 60.015625 139.140625 59.878906 C 140.144531 59.378906 141.796875 59.503906 142.453125 60.132812 C 142.945312 60.589844 143.09375 60.988281 143.144531 62.089844 L 143.195312 63.113281 L 141.523438 63.113281 C 138.972656 63.113281 137.929688 63.398438 137.125 64.316406 C 136.613281 64.902344 136.433594 65.511719 136.496094 66.496094 C 136.613281 68.199219 137.71875 69.214844 139.664062 69.363281 C 141.042969 69.46875 142.214844 68.945312 142.769531 67.960938 C 142.933594 67.65625 143.113281 67.40625 143.15625 67.40625 C 143.195312 67.40625 143.289062 67.605469 143.363281 67.84375 C 143.65625 68.796875 144.011719 69.046875 145.203125 69.152344 L 145.988281 69.214844 L 145.988281 67.824219 L 144.734375 67.824219 L 144.734375 64.601562 C 144.734375 61.019531 144.667969 60.527344 144.09375 59.691406 C 143.71875 59.148438 143.027344 58.675781 142.277344 58.445312 C 141.546875 58.226562 140.195312 58.171875 139.507812 58.332031 Z M 143.164062 65.257812 C 143.164062 66.714844 142.933594 67.195312 141.964844 67.699219 C 141.503906 67.949219 141.324219 67.980469 140.394531 67.980469 C 138.691406 67.980469 138.117188 67.519531 138.117188 66.160156 C 138.117188 64.621094 138.714844 64.285156 141.472656 64.277344 L 143.164062 64.265625 Z M 143.164062 65.257812 "/>
<path style=" stroke:none;fill-rule:nonzero;fill:rgb(0%,0%,0%);fill-opacity:1;" d="M 169.601562 58.339844 C 167.878906 58.71875 166.605469 60.046875 166.101562 62.015625 C 165.894531 62.84375 165.894531 64.757812 166.101562 65.574219 C 166.332031 66.441406 166.71875 67.257812 167.167969 67.804688 C 168.925781 69.949219 172.75 69.875 174.429688 67.65625 C 174.652344 67.375 174.828125 67.089844 174.828125 67.039062 C 174.828125 66.933594 173.785156 66.210938 173.742188 66.273438 C 173.722656 66.296875 173.59375 66.484375 173.449219 66.703125 C 172.625 67.949219 170.691406 68.390625 169.21875 67.667969 C 168.253906 67.195312 167.679688 66.234375 167.554688 64.914062 L 167.480469 64.160156 L 175.246094 64.160156 L 175.246094 63.34375 C 175.234375 59.890625 172.71875 57.660156 169.601562 58.339844 Z M 171.984375 59.828125 C 172.949219 60.308594 173.574219 61.386719 173.574219 62.558594 L 173.574219 63.007812 L 167.492188 63.007812 L 167.566406 62.464844 C 167.703125 61.503906 168.097656 60.675781 168.664062 60.203125 C 169.476562 59.511719 171.003906 59.335938 171.984375 59.828125 Z M 171.984375 59.828125 "/>
<path style=" stroke:none;fill-rule:nonzero;fill:rgb(0%,0%,0%);fill-opacity:1;" d="M 38.246094 63.847656 L 38.246094 69.183594 L 39.816406 69.183594 L 39.816406 65.363281 C 39.816406 61.261719 39.816406 61.242188 40.359375 60.738281 C 40.796875 60.328125 41.382812 60.152344 42.53125 60.089844 L 43.628906 60.027344 L 43.660156 59.261719 L 43.691406 58.507812 L 42.96875 58.507812 C 41.707031 58.507812 40.921875 58.925781 40.253906 59.964844 L 39.867188 60.550781 L 39.835938 59.523438 L 39.804688 58.507812 L 38.246094 58.507812 Z M 38.246094 63.847656 "/>
<path style=" stroke:none;fill-rule:nonzero;fill:rgb(0%,0%,0%);fill-opacity:1;" d="M 90.914062 63.847656 L 90.914062 69.183594 L 92.484375 69.183594 L 92.484375 58.507812 L 90.914062 58.507812 Z M 90.914062 63.847656 "/>
<path style=" stroke:none;fill-rule:nonzero;fill:rgb(0%,0%,0%);fill-opacity:1;" d="M 148.410156 63.816406 L 148.441406 69.132812 L 149.195312 69.152344 L 149.945312 69.164062 L 149.976562 65.28125 C 150.007812 60.8125 149.96875 61.019531 151.023438 60.445312 C 151.515625 60.171875 151.691406 60.132812 152.707031 60.097656 L 153.824219 60.058594 L 153.824219 58.476562 L 152.96875 58.53125 C 152.359375 58.5625 151.972656 58.644531 151.683594 58.792969 C 151.199219 59.042969 150.417969 59.839844 150.269531 60.246094 C 150.082031 60.726562 149.957031 60.394531 149.957031 59.441406 L 149.957031 58.507812 L 148.390625 58.507812 Z M 148.410156 63.816406 "/>
<path style=" stroke:none;fill-rule:nonzero;fill:rgb(0%,0%,0%);fill-opacity:1;" d="M 28.039062 88.046875 L 29.710938 93.089844 L 28.070312 98.019531 C 27.171875 100.722656 26.4375 102.972656 26.4375 103.011719 C 26.4375 103.066406 61.582031 103.097656 104.53125 103.097656 L 182.625 103.097656 L 180.960938 98.082031 L 179.289062 93.078125 L 180.972656 88.035156 L 182.644531 83 L 26.355469 83 Z M 104.300781 87.730469 C 104.773438 87.867188 104.992188 88.085938 105.117188 88.507812 C 105.417969 89.605469 104.164062 90.390625 102.765625 89.960938 C 102.160156 89.78125 101.941406 89.585938 101.84375 89.113281 C 101.617188 88.035156 102.910156 87.3125 104.300781 87.730469 Z M 124.199219 87.761719 C 125.222656 87.941406 125.398438 88.117188 125.398438 88.902344 C 125.398438 89.648438 125.316406 89.742188 124.761719 89.65625 C 123.464844 89.449219 123.476562 89.449219 123.121094 89.75 C 122.839844 89.980469 122.789062 90.109375 122.808594 90.371094 L 122.839844 90.695312 L 123.570312 90.726562 C 123.96875 90.746094 124.355469 90.808594 124.429688 90.871094 C 124.59375 91.007812 124.605469 91.730469 124.460938 92.011719 C 124.367188 92.179688 124.230469 92.210938 123.570312 92.210938 L 122.796875 92.210938 L 122.765625 94.054688 C 122.734375 95.726562 122.714844 95.90625 122.535156 96.042969 C 122.242188 96.25 119.570312 96.25 119.277344 96.042969 C 119.097656 95.90625 119.078125 95.726562 119.046875 94.074219 C 119.003906 92.328125 118.996094 92.253906 118.785156 92.148438 C 118.304688 91.9375 118.324219 90.746094 118.816406 90.746094 C 118.929688 90.746094 119.027344 90.714844 119.027344 90.664062 C 119.046875 90.066406 119.265625 89.1875 119.496094 88.839844 C 119.871094 88.277344 120.8125 87.835938 121.910156 87.722656 C 123.101562 87.59375 123.277344 87.59375 124.199219 87.761719 Z M 152.433594 87.773438 C 152.832031 87.878906 152.882812 88.378906 152.882812 92.179688 L 152.882812 95.757812 L 152.613281 95.96875 C 152.359375 96.167969 152.195312 96.1875 151.105469 96.1875 C 150.019531 96.1875 149.851562 96.167969 149.601562 95.96875 C 149.457031 95.855469 149.332031 95.6875 149.332031 95.601562 C 149.332031 95.488281 149.246094 95.507812 148.984375 95.707031 C 148.367188 96.179688 147.761719 96.398438 147.03125 96.398438 C 145.789062 96.398438 144.898438 95.769531 144.566406 94.660156 C 144.378906 94.023438 144.378906 92.703125 144.574219 92.042969 C 145.078125 90.335938 147.082031 89.65625 149.101562 90.496094 C 149.195312 90.535156 149.226562 90.273438 149.226562 89.363281 C 149.226562 88.160156 149.289062 87.910156 149.644531 87.785156 C 149.863281 87.699219 152.152344 87.699219 152.433594 87.773438 Z M 62.40625 90.390625 C 63.191406 90.621094 64.015625 91.207031 64.351562 91.78125 C 64.613281 92.222656 64.632812 92.359375 64.632812 93.320312 C 64.632812 94.304688 64.613281 94.410156 64.320312 94.890625 C 63.621094 96.019531 62.386719 96.460938 60.054688 96.378906 C 58.382812 96.3125 57.769531 96.125 57.058594 95.488281 C 56.230469 94.746094 55.929688 93.539062 56.261719 92.378906 C 56.628906 91.132812 57.539062 90.527344 59.566406 90.179688 C 60.046875 90.097656 61.855469 90.234375 62.40625 90.390625 Z M 71.925781 90.210938 C 72.417969 90.402344 72.628906 90.734375 72.628906 91.3125 C 72.617188 92.023438 72.324219 92.660156 71.917969 92.828125 C 71.625 92.953125 71.53125 92.933594 70.996094 92.691406 C 70.359375 92.398438 69.929688 92.398438 69.691406 92.691406 C 69.609375 92.796875 69.542969 93.351562 69.511719 94.292969 C 69.480469 95.308594 69.417969 95.789062 69.316406 95.9375 C 69.179688 96.117188 69.03125 96.136719 67.652344 96.136719 C 66.316406 96.136719 66.117188 96.117188 65.992188 95.949219 C 65.710938 95.5625 65.679688 91.300781 65.949219 90.558594 C 66.035156 90.328125 66.074219 90.328125 67.652344 90.328125 C 69.148438 90.328125 69.285156 90.335938 69.386719 90.527344 C 69.441406 90.640625 69.492188 90.839844 69.492188 90.976562 L 69.492188 91.207031 L 69.648438 90.988281 C 70.078125 90.378906 71.28125 89.972656 71.925781 90.210938 Z M 77.371094 90.484375 C 77.84375 90.726562 77.882812 90.734375 78.007812 90.578125 C 78.175781 90.335938 79.117188 90.234375 80.234375 90.316406 C 80.933594 90.371094 81.144531 90.421875 81.257812 90.589844 C 81.488281 90.890625 81.46875 96.25 81.238281 96.796875 C 80.738281 98.011719 79.648438 98.4375 77.070312 98.4375 C 75.617188 98.4375 75.292969 98.40625 74.632812 98.199219 C 74.214844 98.0625 73.777344 97.863281 73.671875 97.757812 C 73.390625 97.476562 73.402344 96.878906 73.671875 96.605469 C 73.902344 96.378906 74.132812 96.398438 74.882812 96.722656 C 75.46875 96.984375 76.347656 97.078125 76.890625 96.933594 C 77.445312 96.773438 77.746094 96.335938 77.746094 95.695312 L 77.746094 95.246094 L 77.289062 95.59375 C 75.804688 96.734375 73.621094 96.117188 73.148438 94.417969 C 72.992188 93.832031 73.023438 92.523438 73.210938 91.949219 C 73.402344 91.414062 73.976562 90.757812 74.507812 90.484375 C 75.335938 90.054688 76.535156 90.054688 77.371094 90.484375 Z M 88.949219 90.421875 C 89.621094 90.683594 90.140625 91.132812 90.351562 91.65625 C 90.550781 92.105469 90.558594 95.875 90.371094 96.0625 C 90.289062 96.148438 89.746094 96.1875 88.605469 96.1875 C 87.070312 96.1875 86.945312 96.179688 86.808594 95.980469 C 86.660156 95.769531 86.652344 95.769531 86.097656 96.050781 C 85.628906 96.292969 85.398438 96.335938 84.695312 96.34375 C 83.996094 96.34375 83.789062 96.304688 83.390625 96.085938 C 82.773438 95.738281 82.449219 95.246094 82.449219 94.648438 C 82.449219 93.8125 82.804688 93.246094 83.601562 92.828125 C 84.019531 92.609375 84.207031 92.578125 85.375 92.578125 L 86.691406 92.578125 L 86.652344 92.296875 C 86.628906 92.136719 86.515625 91.929688 86.402344 91.824219 C 86.109375 91.5625 85.167969 91.59375 84.507812 91.886719 C 83.828125 92.179688 83.558594 92.167969 83.410156 91.84375 C 83.023438 91.007812 83.484375 90.578125 85.21875 90.179688 C 85.335938 90.148438 86.085938 90.140625 86.890625 90.160156 C 88.105469 90.191406 88.460938 90.234375 88.949219 90.421875 Z M 99.128906 90.433594 C 99.703125 90.714844 100.164062 91.257812 100.308594 91.855469 C 100.371094 92.097656 100.425781 93.089844 100.425781 94.054688 C 100.425781 95.539062 100.394531 95.832031 100.246094 96 C 100.101562 96.167969 99.902344 96.1875 98.542969 96.1875 C 97.5 96.1875 96.976562 96.148438 96.890625 96.0625 C 96.808594 95.980469 96.765625 95.425781 96.765625 94.261719 C 96.765625 92.859375 96.734375 92.566406 96.589844 92.398438 C 96.378906 92.167969 96.160156 92.160156 95.867188 92.367188 C 95.660156 92.503906 95.636719 92.640625 95.597656 94.148438 C 95.554688 95.496094 95.511719 95.8125 95.367188 95.957031 C 95.21875 96.105469 94.9375 96.148438 93.789062 96.167969 C 92.410156 96.199219 92.378906 96.199219 92.117188 95.9375 L 91.855469 95.675781 L 91.855469 93.289062 C 91.855469 91.574219 91.898438 90.828125 91.992188 90.640625 C 92.117188 90.378906 92.136719 90.378906 93.726562 90.347656 L 95.324219 90.316406 L 95.429688 90.621094 L 95.542969 90.925781 L 96.046875 90.609375 C 96.316406 90.441406 96.703125 90.265625 96.890625 90.210938 C 97.445312 90.074219 98.617188 90.191406 99.128906 90.433594 Z M 131.898438 90.433594 C 133.101562 90.796875 133.84375 91.53125 134.074219 92.578125 C 134.21875 93.183594 134.125 94.210938 133.894531 94.691406 C 133.65625 95.203125 132.925781 95.824219 132.234375 96.09375 C 131.679688 96.3125 131.449219 96.335938 129.945312 96.34375 C 128.640625 96.34375 128.148438 96.304688 127.679688 96.15625 C 126.851562 95.90625 126.246094 95.414062 125.902344 94.734375 C 125.652344 94.253906 125.609375 94.03125 125.609375 93.308594 C 125.609375 92.609375 125.652344 92.367188 125.878906 91.917969 C 126.328125 91.007812 127.269531 90.441406 128.679688 90.210938 C 129.496094 90.085938 131.136719 90.191406 131.898438 90.433594 Z M 141.160156 90.371094 C 142.820312 90.820312 143.699219 92.023438 143.550781 93.644531 C 143.445312 94.722656 142.976562 95.425781 142.015625 95.917969 C 141.335938 96.273438 140.59375 96.398438 139.265625 96.398438 C 136.195312 96.386719 134.886719 95.339844 135.035156 93.007812 C 135.140625 91.457031 136.132812 90.535156 138.042969 90.222656 C 138.785156 90.109375 140.449219 90.179688 141.160156 90.371094 Z M 112.660156 90.421875 C 112.890625 90.496094 113.078125 90.640625 113.152344 90.808594 C 113.320312 91.164062 113.308594 91.917969 113.140625 92.148438 C 113.007812 92.335938 112.976562 92.335938 112.210938 92.160156 C 111.53125 91.992188 111.367188 91.992188 111.082031 92.105469 C 110.5 92.347656 110.289062 93.132812 110.613281 93.832031 C 110.886719 94.398438 111.355469 94.515625 112.496094 94.285156 C 113.046875 94.179688 113.109375 94.179688 113.234375 94.355469 C 113.457031 94.648438 113.425781 95.695312 113.195312 95.90625 C 112.859375 96.21875 111.835938 96.410156 110.570312 96.410156 C 109.148438 96.410156 108.417969 96.261719 107.707031 95.832031 C 106.402344 95.046875 106.109375 92.890625 107.113281 91.5 C 107.46875 91.007812 108.167969 90.609375 109.078125 90.378906 C 109.765625 90.203125 112.042969 90.234375 112.660156 90.421875 Z M 105.085938 90.472656 C 105.273438 90.609375 105.285156 90.789062 105.316406 93.144531 L 105.347656 95.664062 L 105.085938 95.925781 C 104.835938 96.179688 104.773438 96.1875 103.476562 96.1875 C 101.53125 96.1875 101.636719 96.324219 101.59375 93.769531 C 101.554688 91.542969 101.617188 90.714844 101.84375 90.484375 C 102.074219 90.265625 104.78125 90.253906 105.085938 90.472656 Z M 105.085938 90.472656 "/>
<path style=" stroke:none;fill-rule:nonzero;fill:rgb(0%,0%,0%);fill-opacity:1;" d="M 148.066406 92.304688 C 147.847656 92.484375 147.816406 92.597656 147.816406 93.183594 C 147.816406 93.570312 147.878906 93.929688 147.949219 94.023438 C 148.171875 94.273438 148.472656 94.304688 148.753906 94.074219 C 148.984375 93.894531 149.015625 93.792969 149.015625 93.152344 C 149.015625 92.523438 148.984375 92.410156 148.785156 92.273438 C 148.484375 92.054688 148.359375 92.066406 148.066406 92.304688 Z M 148.066406 92.304688 "/>
<path style=" stroke:none;fill-rule:nonzero;fill:rgb(0%,0%,0%);fill-opacity:1;" d="M 60.054688 92.296875 C 59.691406 92.703125 59.742188 94.085938 60.140625 94.410156 C 60.378906 94.609375 60.777344 94.453125 60.921875 94.09375 C 61.121094 93.625 61.015625 92.460938 60.765625 92.261719 C 60.484375 92.054688 60.253906 92.066406 60.054688 92.296875 Z M 60.054688 92.296875 "/>
<path style=" stroke:none;fill-rule:nonzero;fill:rgb(0%,0%,0%);fill-opacity:1;" d="M 76.640625 92.328125 C 76.191406 92.828125 76.492188 93.992188 77.070312 93.992188 C 77.457031 93.992188 77.644531 93.667969 77.644531 93.015625 C 77.644531 92.535156 77.601562 92.410156 77.414062 92.273438 C 77.101562 92.042969 76.878906 92.066406 76.640625 92.328125 Z M 76.640625 92.328125 "/>
<path style=" stroke:none;fill-rule:nonzero;fill:rgb(0%,0%,0%);fill-opacity:1;" d="M 85.824219 93.625 C 85.3125 93.980469 85.636719 94.722656 86.304688 94.722656 L 86.640625 94.722656 L 86.609375 94.117188 C 86.578125 93.570312 86.558594 93.519531 86.316406 93.488281 C 86.171875 93.476562 85.953125 93.53125 85.824219 93.625 Z M 85.824219 93.625 "/>
<path style=" stroke:none;fill-rule:nonzero;fill:rgb(0%,0%,0%);fill-opacity:1;" d="M 129.476562 92.316406 C 129.308594 92.484375 129.265625 92.660156 129.265625 93.207031 C 129.265625 94 129.421875 94.386719 129.769531 94.484375 C 130.09375 94.566406 130.300781 94.347656 130.425781 93.769531 C 130.6875 92.621094 130.09375 91.699219 129.476562 92.316406 Z M 129.476562 92.316406 "/>
<path style=" stroke:none;fill-rule:nonzero;fill:rgb(0%,0%,0%);fill-opacity:1;" d="M 138.933594 92.261719 C 138.683594 92.460938 138.578125 93.625 138.777344 94.09375 C 138.921875 94.453125 139.320312 94.609375 139.558594 94.410156 C 139.789062 94.222656 139.957031 93.476562 139.882812 92.953125 C 139.777344 92.199219 139.390625 91.917969 138.933594 92.261719 Z M 138.933594 92.261719 "/>
</g>
</svg>
